<svg width="185" height="26" viewBox="0 0 185 26" fill="none" xmlns="http://www.w3.org/2000/svg">
<path d="M172.268 22.36C168.024 22.36 166.462 19.058 167.243 14.924C167.894 11.492 169.951 8.684 173.648 8.684C176.069 8.684 177.918 9.854 178.465 12.35H179.532L179.246 10.114L180.522 2.99H185L181.381 22.1H176.903L177.007 21.632L178.413 19.292H177.293C176.356 20.8 175.184 22.36 172.268 22.36ZM171.643 15.21C171.227 17.29 172.086 18.46 174.663 18.46C176.955 18.46 177.788 17.524 178.126 15.912C178.543 13.78 177.684 12.61 175.158 12.61C172.893 12.61 171.982 13.546 171.643 15.21Z" fill="url(#paint0_linear_1687_798)"/>
<path d="M153.036 15.496C153.505 11.232 156.682 8.684 160.795 8.684C165.326 8.684 167.929 11.154 167.252 15.288L167.07 16.458H157.332C157.202 18.07 158.114 19.006 159.728 19.006C160.978 19.006 162.097 18.538 162.488 17.446H166.914C166.263 20.358 163.529 22.36 159.52 22.36C155.093 22.36 152.594 19.604 153.036 15.496ZM157.749 14.17H163.165C163.243 12.74 162.279 11.908 160.717 11.908C159.233 11.908 158.14 12.714 157.749 14.17Z" fill="url(#paint1_linear_1687_798)"/>
<path d="M138.564 22.1L142.261 2.99H146.74L144.683 13.572H145.906L150.307 8.944H155.905L149.057 15.574L153.353 22.1H148.224L145.021 17.056H144.006L143.042 22.1H138.564Z" fill="url(#paint2_linear_1687_798)"/>
<path d="M124.887 15.392C125.382 10.998 128.74 8.684 132.776 8.684C136.708 8.684 139.702 10.816 139.493 14.456H135.015C135.015 13.494 134.104 12.61 132.542 12.61C130.953 12.61 129.599 13.546 129.339 15.418C129.079 17.394 130.172 18.46 131.865 18.46C133.453 18.46 134.494 17.524 134.729 16.588H139.233C138.66 20.306 135.328 22.36 131.5 22.36C127.49 22.36 124.34 20.072 124.887 15.392Z" fill="url(#paint3_linear_1687_798)"/>
<path d="M110.023 15.496C110.414 10.842 113.981 8.684 118.121 8.684C122.209 8.684 125.411 10.842 125.021 15.496C124.604 20.202 121.037 22.36 116.949 22.36C112.809 22.36 109.607 20.202 110.023 15.496ZM114.476 15.496C114.293 17.472 115.439 18.434 117.262 18.434C119.032 18.434 120.334 17.472 120.516 15.496C120.699 13.546 119.579 12.61 117.782 12.61C115.96 12.61 114.658 13.546 114.476 15.496Z" fill="url(#paint4_linear_1687_798)"/>
<path d="M98.1566 22.1L98.8856 18.174H102.531L104.744 6.89H101.541L102.296 2.99H107.712C109.144 2.99 109.821 3.744 109.535 5.174L106.983 18.174H110.654L109.925 22.1H98.1566Z" fill="url(#paint5_linear_1687_798)"/>
<path d="M85.3058 15.392C85.8005 10.998 89.1593 8.684 93.195 8.684C97.1265 8.684 100.121 10.816 99.9125 14.456H95.4341C95.4341 13.494 94.5228 12.61 92.9606 12.61C91.3724 12.61 90.0185 13.546 89.7581 15.418C89.4977 17.394 90.5913 18.46 92.2837 18.46C93.8719 18.46 94.9134 17.524 95.1477 16.588H99.6521C99.0793 20.306 95.7466 22.36 91.9192 22.36C87.9095 22.36 84.759 20.072 85.3058 15.392Z" fill="url(#paint6_linear_1687_798)"/>
<path d="M75.7164 11.206C75.9767 9.724 76.9661 8.944 78.4502 8.944H87.2767L86.5216 12.87H79.8562L78.0597 22.1H73.5813L75.7164 11.206Z" fill="url(#paint7_linear_1687_798)"/>
<path d="M60.1299 15.496C60.5986 11.232 63.775 8.684 67.8888 8.684C72.4193 8.684 75.0229 11.154 74.346 15.288L74.1637 16.458H64.426C64.2958 18.07 65.2071 19.006 66.8213 19.006C68.0711 19.006 69.1907 18.538 69.5812 17.446H74.0075C73.3566 20.358 70.6227 22.36 66.6131 22.36C62.1868 22.36 59.6873 19.604 60.1299 15.496ZM64.8425 14.17H70.2582C70.3363 12.74 69.3729 11.908 67.8107 11.908C66.3266 11.908 65.2331 12.714 64.8425 14.17Z" fill="url(#paint8_linear_1687_798)"/>
<path d="M57.548 8.944H62.0523L56.2982 22.1H47.0552L46.3782 8.944H50.7263L51.2731 20.982H52.3927L57.548 8.944Z" fill="url(#paint9_linear_1687_798)"/>
<path d="M31.1921 15.496C31.5826 10.842 35.1496 8.684 39.2895 8.684C43.3773 8.684 46.5798 10.842 46.1892 15.496C45.7726 20.202 42.2056 22.36 38.1178 22.36C33.978 22.36 30.7755 20.202 31.1921 15.496ZM35.6443 15.496C35.4621 17.472 36.6077 18.434 38.4303 18.434C40.2008 18.434 41.5026 17.472 41.6849 15.496C41.8671 13.546 40.7476 12.61 38.951 12.61C37.1284 12.61 35.8266 13.546 35.6443 15.496Z" fill="url(#paint10_linear_1687_798)"/>
<path d="M23.0425 13C23.0425 7.47163 18.5546 2.99 13.0184 2.99C7.4822 2.99 2.99423 7.47163 2.99423 13C2.99423 18.5284 7.4822 23.01 13.0184 23.01V26C5.82853 26 0 20.1797 0 13C0 5.8203 5.82853 0 13.0184 0C20.2082 0 26.0368 5.8203 26.0368 13C26.0368 20.1797 20.2082 26 13.0184 26V23.01C18.5546 23.01 23.0425 18.5284 23.0425 13Z" fill="url(#paint11_linear_1687_798)"/>
<path d="M17.705 5.85C17.705 5.85 17.9654 5.85 18.421 6.24C18.8767 6.63 18.8767 6.76 18.8767 6.76L14.8285 25.5772L8.05106 22.9697L17.705 5.85Z" fill="url(#paint12_linear_1687_798)"/>
<defs>
<linearGradient id="paint0_linear_1687_798" x1="0" y1="13" x2="185" y2="13" gradientUnits="userSpaceOnUse">
<stop stop-color="#59B74A"/>
<stop offset="0.333333" stop-color="#25AFF9"/>
<stop offset="0.666667" stop-color="#E957CD"/>
<stop offset="1" stop-color="#F58D39"/>
</linearGradient>
<linearGradient id="paint1_linear_1687_798" x1="0" y1="13" x2="185" y2="13" gradientUnits="userSpaceOnUse">
<stop stop-color="#59B74A"/>
<stop offset="0.333333" stop-color="#25AFF9"/>
<stop offset="0.666667" stop-color="#E957CD"/>
<stop offset="1" stop-color="#F58D39"/>
</linearGradient>
<linearGradient id="paint2_linear_1687_798" x1="0" y1="13" x2="185" y2="13" gradientUnits="userSpaceOnUse">
<stop stop-color="#59B74A"/>
<stop offset="0.333333" stop-color="#25AFF9"/>
<stop offset="0.666667" stop-color="#E957CD"/>
<stop offset="1" stop-color="#F58D39"/>
</linearGradient>
<linearGradient id="paint3_linear_1687_798" x1="0" y1="13" x2="185" y2="13" gradientUnits="userSpaceOnUse">
<stop stop-color="#59B74A"/>
<stop offset="0.333333" stop-color="#25AFF9"/>
<stop offset="0.666667" stop-color="#E957CD"/>
<stop offset="1" stop-color="#F58D39"/>
</linearGradient>
<linearGradient id="paint4_linear_1687_798" x1="0" y1="13" x2="185" y2="13" gradientUnits="userSpaceOnUse">
<stop stop-color="#59B74A"/>
<stop offset="0.333333" stop-color="#25AFF9"/>
<stop offset="0.666667" stop-color="#E957CD"/>
<stop offset="1" stop-color="#F58D39"/>
</linearGradient>
<linearGradient id="paint5_linear_1687_798" x1="0" y1="13" x2="185" y2="13" gradientUnits="userSpaceOnUse">
<stop stop-color="#59B74A"/>
<stop offset="0.333333" stop-color="#25AFF9"/>
<stop offset="0.666667" stop-color="#E957CD"/>
<stop offset="1" stop-color="#F58D39"/>
</linearGradient>
<linearGradient id="paint6_linear_1687_798" x1="0" y1="13" x2="185" y2="13" gradientUnits="userSpaceOnUse">
<stop stop-color="#59B74A"/>
<stop offset="0.333333" stop-color="#25AFF9"/>
<stop offset="0.666667" stop-color="#E957CD"/>
<stop offset="1" stop-color="#F58D39"/>
</linearGradient>
<linearGradient id="paint7_linear_1687_798" x1="0" y1="13" x2="185" y2="13" gradientUnits="userSpaceOnUse">
<stop stop-color="#59B74A"/>
<stop offset="0.333333" stop-color="#25AFF9"/>
<stop offset="0.666667" stop-color="#E957CD"/>
<stop offset="1" stop-color="#F58D39"/>
</linearGradient>
<linearGradient id="paint8_linear_1687_798" x1="0" y1="13" x2="185" y2="13" gradientUnits="userSpaceOnUse">
<stop stop-color="#59B74A"/>
<stop offset="0.333333" stop-color="#25AFF9"/>
<stop offset="0.666667" stop-color="#E957CD"/>
<stop offset="1" stop-color="#F58D39"/>
</linearGradient>
<linearGradient id="paint9_linear_1687_798" x1="0" y1="13" x2="185" y2="13" gradientUnits="userSpaceOnUse">
<stop stop-color="#59B74A"/>
<stop offset="0.333333" stop-color="#25AFF9"/>
<stop offset="0.666667" stop-color="#E957CD"/>
<stop offset="1" stop-color="#F58D39"/>
</linearGradient>
<linearGradient id="paint10_linear_1687_798" x1="0" y1="13" x2="185" y2="13" gradientUnits="userSpaceOnUse">
<stop stop-color="#59B74A"/>
<stop offset="0.333333" stop-color="#25AFF9"/>
<stop offset="0.666667" stop-color="#E957CD"/>
<stop offset="1" stop-color="#F58D39"/>
</linearGradient>
<linearGradient id="paint11_linear_1687_798" x1="0" y1="13" x2="185" y2="13" gradientUnits="userSpaceOnUse">
<stop stop-color="#59B74A"/>
<stop offset="0.333333" stop-color="#25AFF9"/>
<stop offset="0.666667" stop-color="#E957CD"/>
<stop offset="1" stop-color="#F58D39"/>
</linearGradient>
<linearGradient id="paint12_linear_1687_798" x1="0" y1="13" x2="185" y2="13" gradientUnits="userSpaceOnUse">
<stop stop-color="#59B74A"/>
<stop offset="0.333333" stop-color="#25AFF9"/>
<stop offset="0.666667" stop-color="#E957CD"/>
<stop offset="1" stop-color="#F58D39"/>
</linearGradient>
</defs>
</svg>
